<svg width="37" height="37" viewBox="0 0 37 37" fill="none" xmlns="http://www.w3.org/2000/svg">
<g clip-path="url(#clip0)" filter="url(#filter0_d)">
<path d="M18.5 9.35478C20.3054 9.35478 21.7742 7.88601 21.7742 6.08059C21.7742 4.27517 20.3054 2.8064 18.5 2.8064C16.6946 2.8064 15.2258 4.27517 15.2258 6.08059C15.2258 7.88601 16.6946 9.35478 18.5 9.35478ZM18.5 3.74188C19.7895 3.74188 20.8387 4.7911 20.8387 6.08059C20.8387 7.20975 20.0336 8.15459 18.9677 8.37202V6.54833H18.0322V8.37202C16.9663 8.15459 16.1613 7.2102 16.1613 6.08059C16.1613 4.7911 17.2105 3.74188 18.5 3.74188Z" fill="#E3B873"/>
<path d="M18.0322 5.14523C18.0322 4.88691 18.2416 4.67749 18.4999 4.67749C18.7583 4.67749 18.9677 4.88691 18.9677 5.14523C18.9677 5.40356 18.7583 5.61297 18.4999 5.61297C18.2416 5.61297 18.0322 5.40356 18.0322 5.14523Z" fill="#E3B873"/>
<path d="M18.5011 6.69775L18.5011 8.44864" stroke="#E3B873" stroke-linecap="round"/>
<path d="M31.1683 22.1373L28.7903 21.6089V20.9253C29.6374 20.3328 30.1935 19.3519 30.1935 18.2424V17.3069C30.1935 15.6609 28.9714 14.2983 27.3871 14.0702V11.8452L23.0646 10.1158L23.7322 9.44848L23.0641 8.44653C23.1989 8.18685 23.3113 7.91598 23.3996 7.63644L24.5806 7.3996V4.76169L23.4001 4.52531C23.3117 4.24576 23.1989 3.97489 23.0646 3.71521L23.7326 2.71327L21.8678 0.848467L20.8659 1.51651C20.6062 1.38176 20.3353 1.26939 20.0558 1.181L19.8189 0H17.1811L16.9447 1.18055C16.6651 1.26893 16.3942 1.38176 16.1346 1.51605L15.1326 0.848011L13.2678 2.71281L13.9359 3.71476C13.8011 3.97444 13.6887 4.24531 13.6004 4.52486L12.4194 4.76169V7.3996L13.5999 7.63598C13.6883 7.91553 13.8011 8.1864 13.9354 8.44608L13.2674 9.44802L13.9349 10.1154L9.6129 11.8447V14.0697C8.02856 14.2979 6.80645 15.6604 6.80645 17.3065V18.2419C6.80645 19.3519 7.36258 20.3328 8.20968 20.9248V21.6082L5.83168 22.1369C4.753 22.3767 4 23.3156 4 24.4199V29H33V24.4199C33 23.3156 32.247 22.3767 31.1683 22.1373ZM27.8548 21.8553C27.7388 22.0343 27.4166 22.4516 26.9194 22.4516C26.4222 22.4516 26.0999 22.0339 25.9839 21.8553V21.3786C26.2803 21.467 26.5944 21.5161 26.9194 21.5161C27.2444 21.5161 27.5584 21.467 27.8548 21.3782V21.8553ZM29.2581 17.3065V18.2419C29.2581 19.5314 28.2088 20.5806 26.9194 20.5806C25.6299 20.5806 24.5806 19.5314 24.5806 18.2419V17.3065C24.5806 16.017 25.6299 14.9677 26.9194 14.9677C28.2088 14.9677 29.2581 16.017 29.2581 17.3065ZM26.4516 12.4778V14.0697C24.8673 14.2979 23.6452 15.6604 23.6452 17.3065V18.2419C23.6452 19.3519 24.2013 20.3328 25.0484 20.9248V21.6082L22.7097 22.128L20.371 21.6082V20.9248C21.2181 20.3324 21.7742 19.3515 21.7742 18.2419V17.3065C21.7742 15.6604 20.5521 14.2979 18.9677 14.0697V12.1613H19.8189L20.0553 10.9807C20.3349 10.8924 20.6058 10.7795 20.8654 10.6452L21.8674 11.3133L22.3449 10.8357L26.4516 12.4778ZM23.6452 28.0645H13.3548V24.4199C13.3548 23.7571 13.8066 23.1939 14.4536 23.0498L16.8825 22.5101C17.15 22.8645 17.6819 23.3871 18.5 23.3871C19.3181 23.3871 19.85 22.8645 20.1175 22.5105L22.5464 23.0502C23.1934 23.1939 23.6452 23.7575 23.6452 24.4199V28.0645ZM18.5 14.9677C19.7895 14.9677 20.8387 16.017 20.8387 17.3065V18.2419C20.8387 19.5314 19.7895 20.5806 18.5 20.5806C17.2105 20.5806 16.1613 19.5314 16.1613 18.2419V17.3065C16.1613 16.017 17.2105 14.9677 18.5 14.9677ZM18.5 21.5161C18.825 21.5161 19.139 21.467 19.4355 21.3782V21.8548C19.3195 22.0343 18.9972 22.4516 18.5 22.4516C18.0028 22.4516 17.6805 22.0339 17.5645 21.8553V21.3786C17.861 21.467 18.175 21.5161 18.5 21.5161ZM13.3548 6.63266V5.52863L14.352 5.32901L14.4246 5.04376C14.5242 4.65161 14.679 4.27797 14.8844 3.93287L15.0353 3.67936L14.471 2.83272L15.2516 2.05208L16.0983 2.61666L16.3518 2.46547C16.6969 2.26014 17.0705 2.10484 17.4627 2.00572L17.7479 1.93309L17.948 0.935484H19.052L19.2516 1.93263L19.5369 2.00526C19.929 2.10484 20.3027 2.25969 20.6478 2.46501L20.9013 2.61597L21.7479 2.05162L22.5286 2.83226L21.964 3.6789L22.1152 3.93241C22.3205 4.27751 22.4758 4.65115 22.5749 5.0433L22.6476 5.32856L23.6452 5.52863V6.63266L22.648 6.83228L22.5754 7.11753C22.4758 7.50968 22.321 7.88332 22.1156 8.22842L21.9647 8.48193L22.529 9.32857L21.7484 10.1092L20.9017 9.54463L20.6482 9.69582C20.3031 9.90115 19.9295 10.0565 19.5373 10.1556L19.2521 10.2282L19.052 11.2258H17.948L17.7484 10.2287L17.4631 10.156C17.071 10.0565 16.6973 9.9016 16.3522 9.69628L16.0987 9.54532L15.2521 10.1097L14.4714 9.32903L15.036 8.48239L14.8848 8.22888C14.6795 7.88378 14.5242 7.51014 14.4251 7.11799L14.3524 6.83273L13.3548 6.63266ZM14.6551 10.8353L15.1326 11.3128L16.1346 10.6448C16.3942 10.7795 16.6651 10.8919 16.9447 10.9803L17.1811 12.1613H18.0323V14.0697C16.4479 14.2979 15.2258 15.6604 15.2258 17.3065V18.2419C15.2258 19.3519 15.7819 20.3328 16.629 20.9248V21.6082L14.2903 22.128L11.9516 21.6082V20.9248C12.7987 20.3324 13.3548 19.3515 13.3548 18.2419V17.3065C13.3548 15.6604 12.1327 14.2979 10.5484 14.0697V12.4778L14.6551 10.8353ZM7.74194 18.2419V17.3065C7.74194 16.017 8.79116 14.9677 10.0806 14.9677C11.3701 14.9677 12.4194 16.017 12.4194 17.3065V18.2419C12.4194 19.5314 11.3701 20.5806 10.0806 20.5806C8.79116 20.5806 7.74194 19.5314 7.74194 18.2419ZM10.0806 21.5161C10.4056 21.5161 10.7197 21.467 11.0161 21.3782V21.8548C10.9001 22.0343 10.5778 22.4516 10.0806 22.4516C9.58253 22.4516 9.25981 22.0325 9.14516 21.8553V21.3782C9.44161 21.467 9.75565 21.5161 10.0806 21.5161ZM4.93548 24.4199C4.93548 23.7571 5.38724 23.1939 6.03427 23.0498L8.46319 22.5101C8.73063 22.8645 9.26255 23.3871 10.0806 23.3871C10.8987 23.3871 11.4307 22.8645 11.6981 22.5105L13.0639 22.8141C12.6635 23.2354 12.4194 23.7987 12.4194 24.4199V28.0645H4.93548V24.4199ZM32.0645 28.0645H24.5806V24.4199C24.5806 23.7987 24.3365 23.235 23.9361 22.8136L25.3019 22.5101C25.5693 22.8645 26.1013 23.3871 26.9194 23.3871C27.7374 23.3871 28.2694 22.8645 28.5368 22.5105L30.9657 23.0502C31.6128 23.1939 32.0645 23.7575 32.0645 24.4199V28.0645Z" fill="#E3B873"/>
</g>
<defs>
<filter id="filter0_d" x="0" y="0" width="37" height="37" filterUnits="userSpaceOnUse" color-interpolation-filters="sRGB">
<feFlood flood-opacity="0" result="BackgroundImageFix"/>
<feColorMatrix in="SourceAlpha" type="matrix" values="0 0 0 0 0 0 0 0 0 0 0 0 0 0 0 0 0 0 127 0"/>
<feOffset dy="4"/>
<feGaussianBlur stdDeviation="2"/>
<feColorMatrix type="matrix" values="0 0 0 0 0 0 0 0 0 0 0 0 0 0 0 0 0 0 0.25 0"/>
<feBlend mode="normal" in2="BackgroundImageFix" result="effect1_dropShadow"/>
<feBlend mode="normal" in="SourceGraphic" in2="effect1_dropShadow" result="shape"/>
</filter>
<clipPath id="clip0">
<rect width="29" height="29" fill="white" transform="translate(4)"/>
</clipPath>
</defs>
</svg>
